<svg width="68" height="51" viewBox="0 0 68 51" fill="none" xmlns="http://www.w3.org/2000/svg">
<mask id="path-1-outside-1_250_856" maskUnits="userSpaceOnUse" x="-0.433105" y="-0.37207" width="69" height="52" fill="black">
<rect fill="white" x="-0.433105" y="-0.37207" width="69" height="52"/>
<path d="M21.4759 50.4559C34.1719 50.4559 42.5899 39.2779 42.5899 25.4779C42.5899 11.5399 34.2409 0.499929 21.6139 0.499929C8.91789 0.499929 0.499895 11.6779 0.499895 25.4779C0.499895 39.4159 8.77989 50.4559 21.4759 50.4559ZM21.6139 42.7969C14.0929 42.7969 9.2629 34.9999 9.2629 25.4779C9.2629 15.7489 14.0239 8.15893 21.4759 8.15893C28.9279 8.15893 33.8269 15.9559 33.8269 25.4779C33.8269 35.1379 29.1349 42.7969 21.6139 42.7969ZM58.7796 49.6279H67.1976V0.982927H61.2636L48.2916 5.12293L50.0856 12.0229L58.7796 9.60793V49.6279Z"/>
</mask>
<path d="M21.4759 50.9559C34.5379 50.9559 43.0899 39.4547 43.0899 25.4779H42.0899C42.0899 39.1011 33.8059 49.9559 21.4759 49.9559V50.9559ZM43.0899 25.4779C43.0899 11.3648 34.6082 -7.10487e-05 21.6139 -7.10487e-05V0.999929C33.8736 0.999929 42.0899 11.7151 42.0899 25.4779H43.0899ZM21.6139 -7.10487e-05C8.55192 -7.10487e-05 -0.000105143 11.5011 -0.000105143 25.4779H0.999895C0.999895 11.8547 9.28387 0.999929 21.6139 0.999929V-7.10487e-05ZM-0.000105143 25.4779C-0.000105143 39.5899 8.41162 50.9559 21.4759 50.9559V49.9559C9.14817 49.9559 0.999895 39.242 0.999895 25.4779H-0.000105143ZM21.6139 42.2969C18.0488 42.2969 15.1037 40.4563 13.0307 37.4259C10.9516 34.3866 9.7629 30.161 9.7629 25.4779H8.7629C8.7629 30.3169 9.98919 34.7508 12.2053 37.9905C14.4276 41.2391 17.658 43.2969 21.6139 43.2969V42.2969ZM9.7629 25.4779C9.7629 20.6882 10.9358 16.4633 12.9881 13.4516C15.0333 10.4503 17.9427 8.65893 21.4759 8.65893V7.65893C17.5571 7.65893 14.36 9.66253 12.1617 12.8885C9.9705 16.104 8.7629 20.5386 8.7629 25.4779H9.7629ZM21.4759 8.65893C25.0055 8.65893 27.9513 10.4987 30.0337 13.5308C32.1216 16.5707 33.3269 20.7963 33.3269 25.4779H34.3269C34.3269 20.6375 33.0827 16.2037 30.858 12.9646C28.628 9.71768 25.3983 7.65893 21.4759 7.65893V8.65893ZM33.3269 25.4779C33.3269 30.234 32.1708 34.4593 30.1267 37.4797C28.09 40.489 25.1809 42.2969 21.6139 42.2969V43.2969C25.5679 43.2969 28.7653 41.2753 30.9548 38.0402C33.1369 34.816 34.3269 30.3819 34.3269 25.4779H33.3269ZM58.7796 49.6279H58.2796V50.1279H58.7796V49.6279ZM67.1976 49.6279V50.1279H67.6976V49.6279H67.1976ZM67.1976 0.982927H67.6976V0.482927H67.1976V0.982927ZM61.2636 0.982927V0.482927H61.1857L61.1115 0.506597L61.2636 0.982927ZM48.2916 5.12293L48.1395 4.6466L47.6885 4.79054L47.8076 5.24874L48.2916 5.12293ZM50.0856 12.0229L49.6016 12.1487L49.7296 12.6407L50.2194 12.5047L50.0856 12.0229ZM58.7796 9.60793H59.2796V8.95011L58.6457 9.12617L58.7796 9.60793ZM58.7796 50.1279H67.1976V49.1279H58.7796V50.1279ZM67.6976 49.6279V0.982927H66.6976V49.6279H67.6976ZM67.1976 0.482927H61.2636V1.48293H67.1976V0.482927ZM61.1115 0.506597L48.1395 4.6466L48.4436 5.59926L61.4156 1.45926L61.1115 0.506597ZM47.8076 5.24874L49.6016 12.1487L50.5695 11.8971L48.7755 4.99711L47.8076 5.24874ZM50.2194 12.5047L58.9134 10.0897L58.6457 9.12617L49.9517 11.5412L50.2194 12.5047ZM58.2796 9.60793V49.6279H59.2796V9.60793H58.2796Z" fill="black" mask="url(#path-1-outside-1_250_856)"/>
</svg>
