<svg width="85" height="51" viewBox="0 0 85 51" fill="none" xmlns="http://www.w3.org/2000/svg">
<mask id="path-1-outside-1_285_1128" maskUnits="userSpaceOnUse" x="-0.433105" y="-0.37207" width="86" height="52" fill="black">
<rect fill="white" x="-0.433105" y="-0.37207" width="86" height="52"/>
<path d="M21.4759 50.4559C15.2199 50.4559 10.1599 48.0869 6.29589 43.3489C2.43189 38.5649 0.499895 32.6079 0.499895 25.4779C0.499895 18.4399 2.45489 12.5289 6.36489 7.74493C10.3209 2.91493 15.4039 0.499929 21.6139 0.499929C27.8239 0.499929 32.8609 2.89193 36.7249 7.67593C40.6349 12.4599 42.5899 18.3939 42.5899 25.4779C42.5899 32.5159 40.6119 38.4499 36.6559 43.2799C32.7459 48.0639 27.6859 50.4559 21.4759 50.4559ZM12.6439 37.8289C14.9439 41.1409 17.9339 42.7969 21.6139 42.7969C25.2939 42.7969 28.2379 41.1639 30.4459 37.8979C32.6999 34.5859 33.8269 30.4459 33.8269 25.4779C33.8269 20.6019 32.6769 16.5079 30.3769 13.1959C28.0769 9.83793 25.1099 8.15893 21.4759 8.15893C17.7959 8.15893 14.8289 9.81493 12.5749 13.1269C10.3669 16.3929 9.2629 20.5099 9.2629 25.4779C9.2629 30.3539 10.3899 34.4709 12.6439 37.8289ZM49.2047 49.6279V42.9349L65.8337 28.7899C69.2377 25.9379 71.5837 23.5919 72.8717 21.7519C74.2057 19.8659 74.8727 17.8649 74.8727 15.7489C74.8727 13.4489 74.1367 11.6319 72.6647 10.2979C71.1927 8.91793 69.3297 8.22793 67.0757 8.22793C64.9597 8.22793 63.0507 8.80293 61.3487 9.95293C59.6927 11.1029 57.8757 12.9429 55.8977 15.4729L49.8947 10.7809C52.3787 7.28493 54.9317 4.73193 57.5537 3.12193C60.2217 1.46593 63.6027 0.637927 67.6967 0.637927C72.4347 0.637927 76.2757 1.97193 79.2197 4.63993C82.1637 7.30793 83.6357 10.8269 83.6357 15.1969C83.6357 17.0829 83.4057 18.7849 82.9457 20.3029C82.4857 21.7749 81.6577 23.2929 80.4617 24.8569C79.3117 26.3749 78.0467 27.7779 76.6667 29.0659C75.3327 30.3079 73.4697 31.9179 71.0777 33.8959L61.1417 42.1759H84.1187V49.6279H49.2047Z"/>
</mask>
<path d="M6.29589 43.3489L5.90692 43.6631L5.90841 43.6649L6.29589 43.3489ZM6.36489 7.74493L5.97808 7.42811L5.97775 7.42851L6.36489 7.74493ZM36.7249 7.67593L36.3359 7.9901L36.3377 7.99234L36.7249 7.67593ZM36.6559 43.2799L36.2691 42.9631L36.2688 42.9635L36.6559 43.2799ZM12.6439 37.8289L12.2287 38.1076L12.2332 38.1141L12.6439 37.8289ZM30.4459 37.8979L30.0325 37.6166L30.0317 37.6179L30.4459 37.8979ZM30.3769 13.1959L29.9644 13.4785L29.9662 13.4811L30.3769 13.1959ZM12.5749 13.1269L12.1615 12.8456L12.1607 12.8469L12.5749 13.1269ZM21.4759 49.9559C15.3661 49.9559 10.4499 47.6514 6.68338 43.0329L5.90841 43.6649C9.8699 48.5225 15.0737 50.9559 21.4759 50.9559V49.9559ZM6.68486 43.0348C2.90387 38.3535 0.999895 32.5127 0.999895 25.4779H-0.000105143C-0.000105143 32.7031 1.95992 38.7763 5.90692 43.6631L6.68486 43.0348ZM0.999895 25.4779C0.999895 18.5383 2.92507 12.7437 6.75204 8.06134L5.97775 7.42851C1.98472 12.3141 -0.000105143 18.3415 -0.000105143 25.4779H0.999895ZM6.75171 8.06175C10.6133 3.34697 15.5547 0.999929 21.6139 0.999929V-7.10487e-05C15.2531 -7.10487e-05 10.0285 2.48288 5.97808 7.42811L6.75171 8.06175ZM21.6139 0.999929C27.6746 0.999929 32.5679 3.32496 36.3359 7.9901L37.1139 7.36176C33.1539 2.45889 27.9732 -7.10487e-05 21.6139 -7.10487e-05V0.999929ZM36.3377 7.99234C40.1642 12.6742 42.0899 18.4914 42.0899 25.4779H43.0899C43.0899 18.2964 41.1056 12.2457 37.112 7.35951L36.3377 7.99234ZM42.0899 25.4779C42.0899 32.416 40.1426 38.2338 36.2691 42.9631L37.0427 43.5967C41.0812 38.666 43.0899 32.6159 43.0899 25.4779H42.0899ZM36.2688 42.9635C32.4543 47.6306 27.5367 49.9559 21.4759 49.9559V50.9559C27.8351 50.9559 33.0375 48.4972 37.043 43.5963L36.2688 42.9635ZM12.2332 38.1141C14.6162 41.5456 17.7525 43.2969 21.6139 43.2969V42.2969C18.1153 42.2969 15.2716 40.7363 13.0546 37.5437L12.2332 38.1141ZM21.6139 43.2969C25.4735 43.2969 28.567 41.5699 30.8601 38.178L30.0317 37.6179C27.9088 40.758 25.1143 42.2969 21.6139 42.2969V43.2969ZM30.8593 38.1792C33.182 34.7663 34.3269 30.522 34.3269 25.4779H33.3269C33.3269 30.3698 32.2178 34.4056 30.0325 37.6166L30.8593 38.1792ZM34.3269 25.4779C34.3269 20.5217 33.157 16.3227 30.7876 12.9107L29.9662 13.4811C32.1968 16.6932 33.3269 20.6822 33.3269 25.4779H34.3269ZM30.7894 12.9134C28.4093 9.43836 25.2967 7.65893 21.4759 7.65893V8.65893C24.9231 8.65893 27.7445 10.2375 29.9644 13.4785L30.7894 12.9134ZM21.4759 7.65893C17.6138 7.65893 14.4989 9.4111 12.1615 12.8456L12.9883 13.4082C15.1589 10.2188 17.978 8.65893 21.4759 8.65893V7.65893ZM12.1607 12.8469C9.8838 16.2148 8.7629 20.4361 8.7629 25.4779H9.7629C9.7629 20.5838 10.85 16.5711 12.9891 13.407L12.1607 12.8469ZM8.7629 25.4779C8.7629 30.4325 9.90893 34.6515 12.2287 38.1076L13.059 37.5503C10.8709 34.2903 9.7629 30.2754 9.7629 25.4779H8.7629ZM49.2047 49.6279H48.7047V50.1279H49.2047V49.6279ZM49.2047 42.9349L48.8808 42.5541L48.7047 42.7038V42.9349H49.2047ZM65.8337 28.7899L65.5126 28.4067L65.5098 28.4091L65.8337 28.7899ZM72.8717 21.7519L72.4635 21.4632L72.4621 21.4652L72.8717 21.7519ZM72.6647 10.2979L72.3227 10.6627L72.329 10.6684L72.6647 10.2979ZM61.3487 9.95293L61.0688 9.5386L61.0635 9.54224L61.3487 9.95293ZM55.8977 15.4729L55.5898 15.8669L55.9837 16.1747L56.2916 15.7809L55.8977 15.4729ZM49.8947 10.7809L49.4871 10.4913L49.2105 10.8807L49.5868 11.1749L49.8947 10.7809ZM57.5537 3.12193L57.8154 3.54802L57.8174 3.54675L57.5537 3.12193ZM79.2197 4.63993L78.884 5.01042L79.2197 4.63993ZM82.9457 20.3029L83.423 20.4521L83.4242 20.4479L82.9457 20.3029ZM80.4617 24.8569L80.0646 24.5532L80.0632 24.555L80.4617 24.8569ZM76.6667 29.0659L77.0074 29.4319L77.0079 29.4315L76.6667 29.0659ZM71.0777 33.8959L70.7591 33.5106L70.7576 33.5118L71.0777 33.8959ZM61.1417 42.1759L60.8216 41.7918L59.7607 42.6759H61.1417V42.1759ZM84.1187 42.1759H84.6187V41.6759H84.1187V42.1759ZM84.1187 49.6279V50.1279H84.6187V49.6279H84.1187ZM49.7047 49.6279V42.9349H48.7047V49.6279H49.7047ZM49.5287 43.3158L66.1577 29.1708L65.5098 28.4091L48.8808 42.5541L49.5287 43.3158ZM66.1548 29.1732C69.5665 26.3148 71.9542 23.9345 73.2813 22.0387L72.4621 21.4652C71.2132 23.2493 68.909 25.561 65.5126 28.4067L66.1548 29.1732ZM73.2799 22.0407C74.6679 20.0784 75.3727 17.9779 75.3727 15.7489H74.3727C74.3727 17.752 73.7436 19.6535 72.4635 21.4632L73.2799 22.0407ZM75.3727 15.7489C75.3727 13.3323 74.5939 11.3715 73.0005 9.92743L72.329 10.6684C73.6795 11.8924 74.3727 13.5656 74.3727 15.7489H75.3727ZM73.0067 9.93316C71.4309 8.45585 69.4407 7.72793 67.0757 7.72793V8.72793C69.2188 8.72793 70.9546 9.38 72.3228 10.6627L73.0067 9.93316ZM67.0757 7.72793C64.8632 7.72793 62.8561 8.33101 61.0688 9.53863L61.6287 10.3672C63.2454 9.27484 65.0563 8.72793 67.0757 8.72793V7.72793ZM61.0635 9.54224C59.3494 10.7326 57.4967 12.6159 55.5038 15.165L56.2916 15.7809C58.2547 13.2699 60.0361 11.4732 61.6339 10.3636L61.0635 9.54224ZM56.2056 15.079L50.2026 10.387L49.5868 11.1749L55.5898 15.8669L56.2056 15.079ZM50.3023 11.0705C52.7617 7.60925 55.2685 5.11185 57.8154 3.54801L57.2921 2.69584C54.5949 4.35201 51.9958 6.9606 49.4871 10.4913L50.3023 11.0705ZM57.8174 3.54675C60.3856 1.95272 63.6682 1.13793 67.6967 1.13793V0.137927C63.5373 0.137927 60.0579 0.979138 57.2901 2.69711L57.8174 3.54675ZM67.6967 1.13793C72.3359 1.13793 76.0491 2.4413 78.884 5.01042L79.5555 4.26944C76.5024 1.50256 72.5336 0.137927 67.6967 0.137927V1.13793ZM78.884 5.01042C81.7123 7.57356 83.1357 10.9523 83.1357 15.1969H84.1357C84.1357 10.7015 82.6152 7.04229 79.5555 4.26944L78.884 5.01042ZM83.1357 15.1969C83.1357 17.0428 82.9106 18.6948 82.4672 20.1579L83.4242 20.4479C83.9009 18.875 84.1357 17.1231 84.1357 15.1969H83.1357ZM82.4685 20.1538C82.03 21.5569 81.2344 23.0234 80.0646 24.5532L80.8589 25.1607C82.0811 23.5625 82.9415 21.9929 83.423 20.4521L82.4685 20.1538ZM80.0632 24.555C78.9303 26.0504 77.6845 27.4321 76.3256 28.7004L77.0079 29.4315C78.409 28.1238 79.6932 26.6995 80.8603 25.1589L80.0632 24.555ZM76.326 28.7C75.0024 29.9323 73.148 31.5352 70.7591 33.5106L71.3964 34.2812C73.7915 32.3007 75.663 30.6836 77.0074 29.4319L76.326 28.7ZM70.7576 33.5118L60.8216 41.7918L61.4618 42.56L71.3978 34.28L70.7576 33.5118ZM61.1417 42.6759H84.1187V41.6759H61.1417V42.6759ZM83.6187 42.1759V49.6279H84.6187V42.1759H83.6187ZM84.1187 49.1279H49.2047V50.1279H84.1187V49.1279Z" fill="white" mask="url(#path-1-outside-1_285_1128)"/>
</svg>
