<svg width="40" height="42" viewBox="0 0 40 42" fill="none" xmlns="http://www.w3.org/2000/svg">
<g filter="url(#filter0_i_293_958)">
<path d="M40 21.001C40 20.6975 39.8359 20.4186 39.578 20.271L32.0438 16.1614L39.578 12.0436C39.8359 11.9042 40 11.6253 40 11.3136C40 11.0019 39.8359 10.7312 39.578 10.5836L33.091 7.03999C32.7081 6.83492 32.2392 6.99077 32.0359 7.3927C31.8406 7.79464 31.9891 8.2868 32.372 8.50007L37.5303 11.3136L20 20.8862L2.47753 11.3136L20 1.74923L26.1274 5.09594C26.5104 5.30101 26.9793 5.14516 27.1825 4.74323C27.3779 4.34129 27.2294 3.84913 26.8464 3.63586L20.3595 0.0922806C20.1329 -0.0307602 19.8671 -0.0307602 19.6405 0.0922806L0.42204 10.5918C0.164127 10.7312 0 11.0101 0 11.3218C0 11.6335 0.164127 11.9042 0.42204 12.0519L7.95623 16.1696L0.42204 20.271C0.164127 20.4104 0 20.6893 0 21.001C0 21.3045 0.164127 21.5834 0.42204 21.7311L7.95623 25.8488L0.42204 29.9584C0.164127 30.0978 0 30.3767 0 30.6884C0 30.9919 0.164127 31.2708 0.42204 31.4185L19.6405 41.9098C19.7499 41.9754 19.875 42 20 42C20.125 42 20.2501 41.9672 20.3595 41.9098L39.578 31.4185C39.8359 31.279 40 31.0001 40 30.6884C40 30.3849 39.8359 30.106 39.578 29.9584L32.0438 25.8406L39.578 21.7229C39.8359 21.5834 40 21.3045 40 21.001ZM20.3595 22.5349L30.3478 17.0801L32.6768 18.3515L15.1856 27.9405L12.0672 26.2344L19.2419 22.3135L19.6405 22.5349C19.7499 22.6006 19.875 22.6252 20 22.6252C20.125 22.6334 20.2501 22.6006 20.3595 22.5349ZM17.5459 21.3948L10.3712 25.3157L7.26846 23.6177L14.4431 19.6968L17.5459 21.3948ZM9.65221 17.0801L12.755 18.7781L5.58031 22.699L2.47753 21.001L9.65221 17.0801ZM20 30.5736L16.8738 28.8674L34.3728 19.2785L37.5303 21.001L20 30.5736Z" fill="#CCF0EE"/>
</g>
<defs>
<filter id="filter0_i_293_958" x="0" y="0" width="45" height="47" filterUnits="userSpaceOnUse" color-interpolation-filters="sRGB">
<feFlood flood-opacity="0" result="BackgroundImageFix"/>
<feBlend mode="normal" in="SourceGraphic" in2="BackgroundImageFix" result="shape"/>
<feColorMatrix in="SourceAlpha" type="matrix" values="0 0 0 0 0 0 0 0 0 0 0 0 0 0 0 0 0 0 127 0" result="hardAlpha"/>
<feOffset dx="5" dy="5"/>
<feGaussianBlur stdDeviation="5"/>
<feComposite in2="hardAlpha" operator="arithmetic" k2="-1" k3="1"/>
<feColorMatrix type="matrix" values="0 0 0 0 0.8 0 0 0 0 0.941176 0 0 0 0 0.933333 0 0 0 1 0"/>
<feBlend mode="multiply" in2="shape" result="effect1_innerShadow_293_958"/>
</filter>
</defs>
</svg>
